<svg width="192" height="40" viewBox="0 0 192 40" fill="none" xmlns="http://www.w3.org/2000/svg">
<path d="M56.8594 1.199V0H52.0652V1.14467C32.816 1.48426 15.1416 8.0498 1.09766 18.8372C1.09766 18.8372 3.26202 17.7278 5.44449 17.0305C16.9835 13.4172 28.2355 14.2223 35.3018 18.7122C40.2391 16.2436 46.465 14.7765 53.6563 14.7584C60.8476 14.7765 67.0736 16.2436 72.0109 18.7122C79.0953 14.2223 90.3301 13.3991 101.868 17.0305C104.051 17.7106 106.215 18.8372 106.215 18.8372C92.5651 8.35408 75.4811 1.87819 56.8576 1.1981" fill="#FFC800"/>
<path d="M59.2836 35.4928C58.6578 35.4928 57.5304 35.242 57.2442 33.6327C57.1908 33.3284 57.1546 32.9173 57.1546 32.4165V26.2983H60.5714V22.5773H57.2442L57.2623 16.853H52.6293V33.1147C52.6293 33.7233 52.6828 34.3309 52.7905 34.9033C53.0233 36.1195 53.524 37.122 54.2929 37.8727C54.9549 38.5347 55.635 38.9821 56.3323 39.2148C57.0296 39.4656 57.7278 39.5725 58.4079 39.5725C59.8931 39.5725 61.2524 39.1967 62.4686 38.4631L61.9678 34.4912C61.0015 35.1532 60.1077 35.4928 59.2845 35.4928M40.8938 27.0129C41.4842 26.5655 42.1462 26.3328 42.8254 26.3328C43.5408 26.3328 44.7398 26.6008 45.0079 28.3903C45.0613 28.6764 45.0794 28.9092 45.0613 29.0704L45.0432 39.2673H49.659V29.41C49.6228 28.5333 49.5874 27.8895 49.5512 27.5671C49.3719 26.3681 48.8711 25.2415 48.0488 24.2218C47.28 23.2556 46.1172 22.791 44.5071 22.791C43.434 22.791 42.5755 22.9703 41.9307 23.328C41.2334 23.7219 40.4283 24.2762 39.5336 24.9916L38.6932 25.6536V23.0772H34.1136V39.2492H38.6751V29.1772L38.8182 29.0341C39.6585 28.086 40.3568 27.4059 40.8938 27.0129ZM79.3741 39.2854V23.2746C78.2829 23.0953 77.4597 22.9884 76.8693 22.9169C76.2073 22.8453 75.3307 22.7919 74.311 22.7919C71.8777 22.7919 69.8564 23.1143 68.3178 23.7401C66.8154 24.3658 65.6698 25.1709 64.9544 26.1553C64.2209 27.1387 63.7554 28.1946 63.577 29.2678C63.3977 30.3771 63.3805 31.4684 63.5408 32.5234C63.7201 33.7939 64.1493 34.9739 64.7751 36.0479C65.4009 37.1211 66.2059 37.9796 67.1722 38.6062C68.1204 39.232 69.1582 39.5363 70.2675 39.5363C71.126 39.5363 71.8061 39.3932 72.2888 39.107C72.8077 38.8027 73.3447 38.3554 73.8808 37.8193L74.7756 36.9073V39.2148H79.3732V39.2863L79.3741 39.2854ZM74.5981 34.6877C73.9723 35.1351 73.3456 35.5997 72.8629 35.7971C72.3803 36.0117 71.9148 36.1195 71.4674 36.1195C70.5908 36.1195 69.8392 35.7971 69.2668 35.1179C68.7298 34.4921 68.3902 33.7405 68.2653 32.8639C68.086 31.6477 68.1756 30.5021 68.5333 29.4471C68.891 28.374 69.4996 27.5155 70.3219 26.8707C71.1622 26.2268 72.1647 25.9044 73.2913 25.9044H74.848V34.4731L74.5972 34.6877H74.5981ZM102.649 28.373C102.702 28.7126 102.72 29.1419 102.72 29.6436V39.2682H107.318V29.7514C107.318 28.6782 107.282 27.8913 107.21 27.4792C107.031 26.3518 106.53 25.2605 105.69 24.2408C104.885 23.2927 103.561 22.7919 101.754 22.7919C101.002 22.7919 100.34 22.9169 99.7681 23.1496C99.1595 23.4005 98.6406 23.6866 98.2295 24.0262C97.8002 24.3839 97.4063 24.7416 97.0848 25.1175L96.6374 25.6545L96.2435 25.064C95.26 23.5254 93.9361 22.7738 92.1647 22.7738C91.2528 22.7738 90.3934 22.9884 89.6426 23.4358C88.8557 23.8831 88.229 24.3839 87.7826 24.9028L86.8878 25.9587V23.0609H82.3436V39.2329H86.8697L86.8878 28.6601L87.0128 28.517C87.7101 27.7301 88.2834 27.1577 88.7841 26.7819C89.3384 26.3527 89.9288 26.1381 90.5192 26.1381C91.1097 26.1381 91.5924 26.3174 91.8967 26.6923C92.1647 27.0147 92.344 27.4792 92.4509 28.0516C92.5043 28.3558 92.5224 29.0178 92.5224 30.1091V39.2148H97.0667L97.0486 28.2662L97.1917 28.105C98.4975 26.781 99.625 26.1371 100.608 26.1371C101.252 26.1553 102.362 26.4414 102.648 28.373M31.1614 39.2673V23.2737C30.0701 23.0944 29.247 22.9875 28.6565 22.916C27.9945 22.8444 27.136 22.8082 26.0982 22.8082C23.683 22.8082 21.6617 23.1306 20.105 23.7563C18.5845 24.3821 17.4571 25.1872 16.7235 26.1716C15.99 27.155 15.5245 28.211 15.3461 29.2841C15.1496 30.3934 15.1496 31.4847 15.3099 32.5397C15.5064 33.8102 15.9185 34.9902 16.5442 36.0642C17.17 37.1374 17.9932 37.9959 18.9595 38.6225C19.9076 39.2483 20.9454 39.5526 22.0548 39.5526C22.9133 39.5526 23.5934 39.4095 24.076 39.1233C24.5949 38.819 25.132 38.3898 25.6681 37.8528L26.5628 36.9581V39.2483H31.1605V39.2664L31.1614 39.2673ZM26.4387 34.6696C25.6155 35.2782 25.0613 35.6178 24.6502 35.779C24.1675 35.9936 23.702 36.1014 23.2728 36.1014C22.3962 36.1014 21.6445 35.7618 21.0722 35.0998C20.5352 34.474 20.1956 33.7224 20.0706 32.8458C19.8913 31.6296 19.981 30.484 20.3387 29.429C20.6964 28.3558 21.3049 27.4792 22.1453 26.8526C22.9857 26.2087 23.9701 25.8863 25.0966 25.8863H26.6706L26.6887 34.4912L26.4378 34.6705L26.4387 34.6696ZM12.8069 37.4063C13.3792 36.5831 13.6835 35.5816 13.6835 34.455C13.6835 33.4353 13.4507 32.5949 12.9862 31.9329C12.5035 31.2356 11.8234 30.6271 10.9821 30.0901C10.0874 29.5358 8.87117 28.891 7.36879 28.1937C6.45686 27.7645 5.84831 27.4068 5.4906 27.0844C5.06135 26.7086 4.82861 26.244 4.82861 25.7251C4.82861 25.1709 5.06135 24.6873 5.4906 24.3296C5.91985 23.9719 6.54652 23.7926 7.40502 23.7926C8.60402 23.7926 9.73058 24.0434 10.7865 24.5261C11.52 24.8485 12.2001 25.2415 12.844 25.6354V22.1109C12.6647 22.0031 12.3613 21.86 11.8605 21.6454C11.2701 21.3946 10.5366 21.1627 9.62462 20.9481C8.7299 20.7516 7.72831 20.6438 6.65519 20.6438C5.18813 20.6438 3.91849 20.8947 2.916 21.3774C1.93253 21.8428 1.18089 22.4867 0.715416 23.2556C0.232736 24.0425 0 24.9372 0 25.9035C0 26.8698 0.232737 27.7998 0.697305 28.5152C1.17998 29.2669 1.80665 29.9107 2.55739 30.3934C3.34435 30.9123 4.2925 31.4131 5.34842 31.8424C6.35 32.2363 7.13696 32.6293 7.67398 33.0233C8.31785 33.4706 8.64024 34.0611 8.64024 34.7403C8.64024 35.1514 8.44373 35.5634 8.06791 35.9927C7.67398 36.4401 6.90513 36.6547 5.76046 36.6547C4.6158 36.6547 3.48834 36.4401 2.46864 36.0108C1.717 35.6884 0.930042 35.2954 0.143084 34.848V38.5872C1.09124 38.9811 2.00317 39.2845 2.87978 39.4991C3.84605 39.7319 4.61489 39.875 5.18722 39.9284C5.75956 39.9818 6.24314 39.9999 6.63617 39.9999C8.03168 39.9999 9.28412 39.7672 10.3572 39.3198C11.3951 38.8725 12.2173 38.2286 12.8078 37.4054" fill="#081F5E"/>
<path d="M174.277 37.8281H170.803C168.345 37.8281 166.276 35.882 166.191 33.4904C166.148 32.2551 166.594 31.0869 167.451 30.1994C168.307 29.312 169.457 28.8229 170.691 28.8229H174.277C174.469 28.8229 174.65 28.7478 174.786 28.6119C174.922 28.4761 174.997 28.295 174.997 28.103C174.997 27.7063 174.675 27.3831 174.277 27.3831H170.631C169.003 27.3831 167.41 28.055 166.261 29.2259C165.135 30.3733 164.532 31.8694 164.562 33.4397C164.592 35.0027 165.223 36.467 166.339 37.5637C167.456 38.6613 168.935 39.2662 170.503 39.2662H174.278C174.675 39.2662 174.998 38.9429 174.998 38.5463C174.998 38.1496 174.675 37.8263 174.278 37.8263L174.277 37.8281Z" fill="#081F5E"/>
<path d="M174.389 37.0158C176.427 37.0158 178.079 35.3636 178.079 33.3255C178.079 31.2874 176.427 29.6353 174.389 29.6353C172.35 29.6353 170.698 31.2874 170.698 33.3255C170.698 35.3636 172.35 37.0158 174.389 37.0158Z" fill="#FFC800"/>
<path d="M148.396 27.3838C148.157 27.3838 147.962 27.4617 147.815 27.6156C147.671 27.7668 147.598 27.9733 147.598 28.2296V38.4211C147.598 38.6774 147.672 38.8848 147.816 39.0351C147.962 39.1891 148.157 39.267 148.397 39.267C148.649 39.267 148.851 39.1855 148.998 39.0234C149.14 38.8676 149.211 38.6647 149.211 38.4211V28.2296C149.211 27.986 149.14 27.7841 148.998 27.6274C148.85 27.4653 148.648 27.3838 148.396 27.3838Z" fill="#081F5E"/>
<path d="M161.831 27.4636H153.328C152.579 27.4636 152.497 27.9662 152.497 28.1827C152.497 28.4688 152.636 28.6282 152.752 28.7115C152.899 28.8166 153.092 28.87 153.327 28.87H156.764V38.3425C156.764 38.597 156.833 38.8025 156.97 38.9529C157.111 39.1095 157.311 39.1883 157.563 39.1883C157.816 39.1883 158.013 39.1113 158.165 38.9601C158.316 38.8089 158.393 38.6006 158.393 38.3425V28.87H161.83C162.08 28.87 162.28 28.812 162.423 28.697C162.578 28.573 162.66 28.3955 162.66 28.1836C162.66 27.9717 162.579 27.4645 161.829 27.4645L161.831 27.4636Z" fill="#081F5E"/>
<path d="M190.792 27.6156C190.645 27.4617 190.45 27.3838 190.211 27.3838C189.972 27.3838 189.76 27.4617 189.613 27.6156C189.469 27.7668 189.397 27.9733 189.397 28.2296V32.4632H182.824V28.2296C182.824 27.9733 182.751 27.7668 182.607 27.6156C182.46 27.4617 182.26 27.3838 182.01 27.3838C181.76 27.3838 181.575 27.4617 181.428 27.6156C181.284 27.7668 181.212 27.9733 181.212 28.2296V38.4211C181.212 38.6774 181.285 38.8839 181.428 39.0351C181.575 39.1891 181.771 39.267 182.01 39.267C182.249 39.267 182.46 39.1891 182.607 39.0351C182.751 38.8839 182.824 38.6774 182.824 38.4211V33.885H189.397V38.4211C189.397 38.6792 189.474 38.8875 189.625 39.0387C189.776 39.19 189.973 39.267 190.211 39.267C190.448 39.267 190.645 39.1891 190.792 39.0351C190.936 38.8839 191.009 38.6774 191.009 38.4211V28.2296C191.009 27.9733 190.935 27.7668 190.792 27.6156Z" fill="#081F5E"/>
<path d="M143.494 27.4347C143.433 27.4193 143.371 27.4111 143.308 27.4111C142.964 27.4111 142.666 27.6439 142.58 27.978L140.13 37.6172C140.111 37.6905 140.077 37.7367 139.966 37.7376C139.846 37.7358 139.826 37.6461 139.817 37.6117L137.831 28.6663C137.668 27.93 137.052 27.4356 136.298 27.4356C136.271 27.4356 136.243 27.4356 136.215 27.4374C135.514 27.4718 134.914 27.9934 134.755 28.7079L132.778 37.6117C132.769 37.6516 132.751 37.7349 132.624 37.7376C132.498 37.7376 132.477 37.6561 132.467 37.6172L130.016 27.978C129.931 27.6448 129.632 27.4111 129.288 27.4111C129.226 27.4111 129.163 27.4193 129.102 27.4347C128.701 27.537 128.458 27.9463 128.559 28.3484L131.01 37.9875C131.201 38.7374 131.847 39.2409 132.62 39.2409H132.647C133.433 39.2291 134.075 38.7057 134.245 37.9377L136.231 28.9923C136.238 28.9624 136.243 28.9389 136.297 28.9389C136.352 28.9389 136.357 28.9624 136.364 28.9923L138.35 37.9377C138.521 38.7048 139.163 39.2282 139.949 39.24H139.951H139.962C140.743 39.24 141.396 38.7365 141.587 37.9866L144.037 28.3475C144.087 28.1528 144.057 27.9509 143.955 27.7779C143.853 27.6049 143.689 27.4827 143.494 27.4338V27.4347Z" fill="#081F5E"/>
<path d="M122.949 32.8564L117.519 32.0087C116.808 31.8973 116.293 31.2951 116.293 30.5761C116.293 29.7764 116.943 29.1262 117.743 29.1262H124.116C124.514 29.1262 124.838 28.802 124.838 28.4036C124.838 28.0051 124.514 27.6809 124.116 27.6809H117.743C116.146 27.6809 114.847 28.9795 114.847 30.577C114.847 32.0133 115.877 33.2168 117.297 33.4377L122.726 34.2854C123.532 34.4113 124.117 35.0941 124.117 35.9091C124.117 36.8156 123.379 37.5527 122.474 37.5527H116.293C115.895 37.5527 115.57 37.877 115.57 38.2754C115.57 38.6739 115.895 38.9981 116.293 38.9981H122.474C124.177 38.9981 125.563 37.6125 125.563 35.9091C125.563 34.3768 124.464 33.0936 122.95 32.8573L122.949 32.8564Z" fill="#081F5E"/>
</svg>
