<svg width="716" height="194" viewBox="0 0 716 194" fill="none" xmlns="http://www.w3.org/2000/svg">
<g clip-path="url(#clip0_405_606)">
<path d="M254.521 75.8429C253.911 76.6329 253.302 77.4229 252.693 77.8179C252.084 78.2129 251.272 78.4104 250.257 78.4104C249.445 78.4104 248.43 78.2129 247.618 77.6204C246.602 77.0279 245.587 76.4354 244.369 75.8429C243.151 75.2504 241.73 74.6579 240.105 74.0654C238.481 73.4729 236.654 73.2754 234.624 73.2754C231.172 73.2754 228.533 74.0654 226.705 75.4479C225.081 76.8304 224.066 78.8054 224.066 81.3729C224.066 82.9529 224.675 84.3354 225.69 85.3229C226.705 86.3104 228.127 87.2979 229.751 88.0879C231.375 88.8779 233.405 89.4704 235.436 90.0629C237.669 90.6554 239.699 91.4454 242.136 92.2354C244.369 93.0254 246.602 93.8154 248.836 95.0004C251.069 95.9879 252.896 97.3704 254.521 98.9504C256.145 100.53 257.566 102.505 258.581 104.875C259.596 107.245 260.205 110.01 260.205 113.17C260.205 116.725 259.596 120.083 258.175 123.243C256.957 126.403 254.927 129.168 252.49 131.538C250.054 133.908 247.008 135.685 243.354 137.068C239.699 138.45 235.639 139.043 231.172 139.043C228.736 139.043 226.096 138.845 223.457 138.253C220.818 137.66 218.381 137.068 215.945 136.08C213.508 135.093 211.275 134.105 209.042 132.92C206.808 131.735 204.981 130.353 203.357 128.773L208.839 120.28C209.245 119.688 209.854 119.095 210.463 118.7C211.275 118.305 212.087 118.108 212.899 118.108C213.915 118.108 215.133 118.503 216.148 119.095C217.366 119.688 218.584 120.478 220.005 121.268C221.427 122.058 223.051 122.848 224.878 123.44C226.705 124.033 228.939 124.428 231.375 124.428C234.827 124.428 237.466 123.638 239.293 122.255C241.121 120.873 242.136 118.503 242.136 115.343C242.136 113.565 241.527 111.985 240.511 110.8C239.496 109.615 238.075 108.628 236.451 108.035C234.827 107.245 232.796 106.653 230.766 106.06C228.533 105.468 226.502 104.875 224.269 104.085C222.036 103.295 219.802 102.505 217.772 101.518C215.539 100.53 213.711 99.1479 212.087 97.5679C210.463 95.9879 209.042 93.8154 208.027 91.2479C207.011 88.6804 206.402 85.7179 206.402 81.9654C206.402 79.0029 207.011 76.2379 208.23 73.2754C209.448 70.5104 211.275 67.9429 213.508 65.7704C215.945 63.5979 218.787 61.8204 222.239 60.4379C225.69 59.0554 229.548 58.4629 234.015 58.4629C236.451 58.4629 238.887 58.6604 241.324 59.0554C243.76 59.4504 245.79 60.0429 248.024 60.6354C250.054 61.4254 252.084 62.2154 253.911 63.2029C255.739 64.1904 257.363 65.3754 258.784 66.7579L254.521 75.8429Z" fill="white"/>
<path d="M349.133 99.1482C349.133 104.876 348.118 110.011 346.087 114.948C344.057 119.886 341.215 124.033 337.56 127.588C333.906 131.143 329.439 134.106 324.363 136.081C319.287 138.056 313.603 139.241 307.309 139.241C301.015 139.241 295.33 138.253 290.254 136.081C285.178 134.106 280.712 131.143 277.057 127.588C273.403 124.033 270.56 119.688 268.53 114.948C266.5 110.011 265.484 104.876 265.484 99.1482C265.484 93.4207 266.5 88.2857 268.53 83.3482C270.56 78.4107 273.403 74.2632 277.057 70.7082C280.712 67.1532 285.178 64.3882 290.254 62.2157C295.33 60.2407 301.218 59.0557 307.309 59.0557C313.603 59.0557 319.287 60.0432 324.363 62.2157C329.439 64.1907 333.906 67.1532 337.56 70.7082C341.215 74.2632 344.057 78.6082 346.087 83.3482C348.118 88.2857 349.133 93.6182 349.133 99.1482ZM330.048 99.1482C330.048 95.1982 329.439 91.8407 328.424 88.6807C327.409 85.5207 325.987 82.9532 323.957 80.7807C321.927 78.6082 319.693 77.0282 316.851 75.8432C314.009 74.6582 310.76 74.0657 307.309 74.0657C303.654 74.0657 300.406 74.6582 297.563 75.8432C294.721 77.0282 292.284 78.6082 290.457 80.7807C288.427 82.9532 287.006 85.5207 285.99 88.6807C284.975 91.8407 284.366 95.1982 284.366 99.1482C284.366 103.098 284.975 106.653 285.99 109.616C287.006 112.776 288.427 115.343 290.457 117.516C292.487 119.688 294.721 121.268 297.563 122.453C300.406 123.638 303.654 124.231 307.309 124.231C310.963 124.231 314.009 123.638 316.851 122.453C319.693 121.268 321.927 119.688 323.957 117.516C325.987 115.343 327.409 112.776 328.424 109.616C329.439 106.653 330.048 103.098 330.048 99.1482Z" fill="white"/>
<path d="M341.621 60.0432H356.645C358.269 60.0432 359.69 60.4382 360.705 61.0307C361.721 61.8207 362.533 62.6107 362.939 63.7957L378.572 105.666C379.181 107.443 379.993 109.418 380.602 111.591C381.415 113.763 382.024 115.936 382.633 118.306C383.242 115.936 383.648 113.763 384.46 111.591C385.069 109.418 385.881 107.443 386.49 105.666L401.921 63.7957C402.327 62.8082 402.936 61.8207 404.154 61.0307C405.169 60.2407 406.59 59.8457 408.011 59.8457H423.239L390.957 138.253H374.105L341.621 60.0432Z" fill="white"/>
<path d="M470.545 60.043V74.4605H447.805V138.45H429.127V74.4605H406.387V60.043H470.545Z" fill="white"/>
<path d="M525.566 60.043V74.0655H492.472V92.433H517.851V105.863H492.472V124.428H525.566V138.45H473.793V60.043H525.566Z" fill="white"/>
<path d="M590.333 118.108C590.739 118.108 591.145 118.108 591.754 118.306C592.363 118.503 592.566 118.701 592.972 119.096L600.281 126.601C597.033 130.748 592.972 133.908 588.1 135.883C583.227 138.056 577.339 139.043 570.842 139.043C564.751 139.043 559.269 138.056 554.397 136.081C549.524 134.106 545.463 131.341 542.012 127.786C538.56 124.231 536.124 120.083 534.297 115.146C532.469 110.208 531.657 104.876 531.657 99.1482C531.657 93.2232 532.672 87.8907 534.703 82.9532C536.733 78.0157 539.575 73.8682 543.433 70.3132C547.088 66.7582 551.554 63.9932 556.63 62.0182C561.706 60.0432 567.391 59.0557 573.684 59.0557C576.73 59.0557 579.572 59.2532 582.212 59.8457C584.851 60.4382 587.288 61.0307 589.724 62.0182C591.957 63.0057 594.191 63.9932 596.221 65.3757C598.251 66.5607 599.875 68.1407 601.5 69.5232L595.206 77.8182C594.8 78.4107 594.394 78.8057 593.785 79.2007C593.175 79.5957 592.363 79.7932 591.551 79.7932C590.942 79.7932 590.333 79.5957 589.724 79.3982C589.115 79.2007 588.506 78.8057 587.897 78.4107C587.287 78.0157 586.475 77.6207 585.663 77.0282C584.851 76.6332 583.836 76.0407 582.821 75.6457C581.806 75.2507 580.384 74.8557 578.963 74.6582C577.542 74.4607 575.715 74.2632 573.888 74.2632C570.436 74.2632 567.391 74.8557 564.548 76.0407C561.706 77.2257 559.269 78.8057 557.239 80.9782C555.209 83.1507 553.584 85.7182 552.569 88.8782C551.351 92.0382 550.945 95.3957 550.945 99.3457C550.945 103.296 551.554 106.851 552.569 110.011C553.788 113.171 555.209 115.738 557.239 117.911C559.269 120.083 561.503 121.663 563.939 122.848C566.578 124.033 569.218 124.428 572.263 124.428C573.888 124.428 575.512 124.428 576.933 124.231C578.354 124.033 579.572 123.836 580.791 123.441C582.009 123.046 583.227 122.453 584.242 121.861C585.257 121.268 586.475 120.478 587.491 119.491C587.897 119.096 588.506 118.898 588.912 118.701C589.115 118.306 589.724 118.108 590.333 118.108Z" fill="white"/>
<path d="M676.824 138.45H657.942V105.27H625.254V138.45H606.575V60.043H625.457V92.828H658.145V60.043H677.027V138.45H676.824Z" fill="white"/>
<path d="M701.391 22.1475V24.32H697.939V33.9975H695.097V24.32H691.646V22.1475H701.391Z" fill="white"/>
<path d="M709.106 29.2575C709.309 29.455 709.309 29.6525 709.309 29.85C709.309 29.6525 709.512 29.455 709.512 29.06C709.715 28.8625 709.715 28.665 709.918 28.4675L712.964 22.5425C712.964 22.345 713.167 22.345 713.167 22.345L713.37 22.1475H713.573C713.573 22.1475 713.776 22.1475 713.979 22.1475H716.212V33.9975H713.776V27.2825C713.776 26.8875 713.776 26.69 713.776 26.295L710.527 32.4175C710.527 32.615 710.324 32.8125 710.121 32.8125C709.918 32.8125 709.715 33.01 709.512 33.01H709.106C708.903 33.01 708.7 33.01 708.497 32.8125C708.294 32.8125 708.091 32.615 708.091 32.4175L704.843 26.295C704.843 26.4925 704.843 26.69 704.843 26.8875C704.843 27.085 704.843 27.2825 704.843 27.48V34.195H702.406V22.345H704.64C704.843 22.345 704.843 22.345 705.046 22.345H705.249C705.249 22.345 705.452 22.345 705.452 22.5425L705.655 22.74L708.7 28.665C708.903 28.665 708.903 29.06 709.106 29.2575Z" fill="white"/>
<path d="M98.7972 76.855C101.64 74.09 104.279 71.325 106.918 68.56C109.558 65.795 112.4 63.03 115.04 60.0675C117.679 57.3025 120.521 54.34 123.161 51.7725C123.77 51.97 123.973 52.365 124.379 52.76C130.064 58.685 135.749 64.61 141.434 70.535C145.088 74.485 148.946 78.2375 152.6 81.99C155.646 85.15 157.473 88.705 158.082 92.8525C158.894 98.7775 157.473 104.11 153.209 108.652C149.961 112.01 146.712 115.367 143.464 118.922C137.982 124.65 132.5 130.377 127.018 136.105C122.146 141.24 117.273 146.177 112.4 151.312C106.715 157.237 100.828 163.36 95.1427 169.285C93.9245 170.47 92.7063 171.852 91.4881 173.037C86.8184 177.382 81.3366 178.765 75.0427 177.382C71.9972 176.79 69.3578 175.21 67.1245 173.037C65.0942 170.865 62.8609 168.692 60.8306 166.52C56.3639 161.78 51.8972 157.237 47.2275 152.497C44.3851 149.535 41.3397 146.572 38.4972 143.412C38.2942 143.215 38.0912 143.215 38.0912 143.017C37.6851 142.622 37.6851 142.425 38.0912 142.03C38.0912 142.03 38.0912 142.03 38.2942 141.832C42.5578 137.487 46.6184 133.142 50.8821 128.797C51.0851 128.6 51.0851 128.6 51.2881 128.402C51.4912 128.205 51.6942 128.205 52.1003 128.402C52.7094 128.995 53.5215 129.39 54.1306 129.982C58.3942 132.945 63.0639 135.315 68.1397 136.697C70.9821 137.487 73.6215 137.882 76.4639 137.882C79.3063 137.882 82.1487 137.685 84.9912 137.29C89.4578 136.5 93.5184 134.92 97.173 132.155C102.655 128.205 106.106 122.872 107.325 116.355C108.34 111.615 107.934 106.875 106.106 102.332C104.279 98.185 101.437 94.8275 97.5791 92.4575C95.1427 90.8775 92.7063 89.89 90.0669 88.705C86.2093 87.125 82.5548 85.7425 78.6972 84.36C77.073 83.7675 75.4487 82.9775 73.8245 81.99C71.9972 80.6075 70.779 78.83 70.576 76.6575C70.373 73.695 71.5912 71.325 74.4336 69.9425C75.8548 69.1525 77.479 68.7575 79.3063 68.7575C82.9609 68.56 86.6154 69.35 89.8639 70.7325C93.1124 72.115 95.9548 74.09 98.3912 76.46C98.5942 76.6575 98.7972 76.6575 98.7972 76.855C98.5942 76.855 98.5942 76.855 98.7972 76.855Z" fill="white"/>
<path d="M57.5819 111.22C49.2577 119.713 40.9334 128.403 32.6092 136.895C32.2031 136.5 31.7971 136.105 31.391 135.71C24.691 128.995 17.788 121.885 10.885 114.775C8.85466 112.603 6.82436 110.628 4.79406 108.455C1.54558 104.9 -0.078667 100.95 -0.281697 96.2102C-0.484728 91.4702 0.936485 87.3227 3.77891 83.5702C4.59103 82.5827 5.40315 81.5953 6.4183 80.8053C11.6971 75.2753 17.1789 69.7453 22.4577 64.2153C29.3607 57.1053 36.2638 49.9952 43.1668 42.8852C48.2425 37.5527 53.3183 32.4177 58.3941 27.0852C61.0334 24.3202 63.6728 21.5553 66.5153 18.7903C71.388 14.0503 77.0728 12.6677 83.7728 14.2477C86.6153 15.0377 89.2547 16.4203 91.285 18.5928C94.3304 21.5553 97.1728 24.7153 100.218 27.8753C104.685 32.6153 109.152 37.1577 113.821 41.8977C115.04 43.2802 116.258 44.4652 117.679 45.8477C118.085 46.2427 118.085 46.4402 117.679 46.8352C116.258 48.2177 114.836 49.6003 113.618 51.1803C110.776 54.1428 107.933 56.9078 105.294 59.8703C104.888 60.2653 104.482 60.8578 103.873 61.0553C102.655 60.2653 101.436 59.4753 100.421 58.8828C98.188 57.5003 95.7516 56.5128 93.3153 55.5253C89.8637 54.3403 86.4122 53.5503 82.7577 53.3528C80.7274 53.1553 78.9001 53.3528 76.8698 53.5503C74.2304 53.7478 71.7941 54.3403 69.3577 54.9328C60.8304 57.6978 55.3486 63.0303 52.9122 71.3253C51.8971 74.6828 51.6941 78.0402 52.3031 81.3977C52.7092 83.7677 53.3183 86.1377 54.3334 88.3102C55.9577 91.6677 58.5971 94.2352 61.6425 96.4077C63.8759 97.9877 66.5153 99.1727 69.1547 100.16C73.0122 101.74 76.8698 103.123 80.7274 104.505C82.5547 105.098 84.1789 105.888 85.8031 107.073C88.0365 108.653 89.2547 110.825 89.2547 113.59C89.0516 116.75 87.6304 119.12 84.585 120.503C82.1486 121.688 79.7122 121.885 77.0728 121.688C73.2153 121.293 69.7638 119.91 66.5153 118.133C64.0789 116.948 62.0486 115.368 60.0183 113.59C59.2062 112.998 58.394 112.208 57.5819 111.22Z" fill="white"/>
</g>
<defs>
<clipPath id="clip0_405_606">
<rect width="716" height="194" fill="white"/>
</clipPath>
</defs>
</svg>
